<mxfile host="65bd71144e">
    <diagram name="A-0" id="aaZVS3uSOm6F_bMxCwup">
        <mxGraphModel dx="693" dy="469" grid="1" gridSize="10" guides="1" tooltips="1" connect="1" arrows="1" fold="1" page="1" pageScale="1" pageWidth="827" pageHeight="1169" math="0" shadow="0">
            <root>
                <mxCell id="0"/>
                <mxCell id="1" parent="0"/>
                <mxCell id="r83OxqLwS6Ykvgr3GOJs-1" value="Деятельность библиотечного фонда города" style="rounded=0;whiteSpace=wrap;html=1;" parent="1" vertex="1">
                    <mxGeometry x="320" y="220" width="120" height="60" as="geometry"/>
                </mxCell>
                <mxCell id="r83OxqLwS6Ykvgr3GOJs-2" value="Федеральный закон&lt;br&gt;&amp;nbsp;&quot;О библиотечном деле&quot;" style="endArrow=classic;html=1;rounded=0;entryX=0.5;entryY=0;entryDx=0;entryDy=0;align=center;" parent="1" edge="1">
                    <mxGeometry x="-0.1667" y="-70" width="50" height="50" relative="1" as="geometry">
                        <mxPoint x="340" y="100" as="sourcePoint"/>
                        <mxPoint x="340" y="220" as="targetPoint"/>
                        <mxPoint as="offset"/>
                    </mxGeometry>
                </mxCell>
                <mxCell id="r83OxqLwS6Ykvgr3GOJs-3" value="Издания" style="endArrow=classic;html=1;rounded=0;entryX=0;entryY=0.25;entryDx=0;entryDy=0;" parent="1" target="r83OxqLwS6Ykvgr3GOJs-1" edge="1">
                    <mxGeometry width="50" height="50" relative="1" as="geometry">
                        <mxPoint x="160" y="235" as="sourcePoint"/>
                        <mxPoint x="440" y="270" as="targetPoint"/>
                        <mxPoint as="offset"/>
                    </mxGeometry>
                </mxCell>
                <mxCell id="r83OxqLwS6Ykvgr3GOJs-4" value="Читатели" style="endArrow=classic;html=1;rounded=0;entryX=0;entryY=0.75;entryDx=0;entryDy=0;" parent="1" target="r83OxqLwS6Ykvgr3GOJs-1" edge="1">
                    <mxGeometry width="50" height="50" relative="1" as="geometry">
                        <mxPoint x="160" y="265" as="sourcePoint"/>
                        <mxPoint x="330" y="245" as="targetPoint"/>
                        <mxPoint as="offset"/>
                    </mxGeometry>
                </mxCell>
                <mxCell id="r83OxqLwS6Ykvgr3GOJs-5" value="Сотрудники" style="endArrow=classic;html=1;rounded=0;entryX=0.25;entryY=1;entryDx=0;entryDy=0;labelPosition=left;verticalLabelPosition=bottom;align=right;verticalAlign=top;" parent="1" target="r83OxqLwS6Ykvgr3GOJs-1" edge="1">
                    <mxGeometry x="0.0369" y="1" width="50" height="50" relative="1" as="geometry">
                        <mxPoint x="350" y="380" as="sourcePoint"/>
                        <mxPoint x="440" y="270" as="targetPoint"/>
                        <mxPoint as="offset"/>
                    </mxGeometry>
                </mxCell>
                <mxCell id="r83OxqLwS6Ykvgr3GOJs-6" value="Литература" style="endArrow=classic;html=1;rounded=0;entryX=0.75;entryY=1;entryDx=0;entryDy=0;labelPosition=right;verticalLabelPosition=bottom;align=left;verticalAlign=top;" parent="1" target="r83OxqLwS6Ykvgr3GOJs-1" edge="1">
                    <mxGeometry width="50" height="50" relative="1" as="geometry">
                        <mxPoint x="410" y="380" as="sourcePoint"/>
                        <mxPoint x="440" y="270" as="targetPoint"/>
                    </mxGeometry>
                </mxCell>
                <mxCell id="r83OxqLwS6Ykvgr3GOJs-7" value="Авторские права" style="endArrow=classic;html=1;rounded=0;entryX=0.5;entryY=0;entryDx=0;entryDy=0;" parent="1" target="r83OxqLwS6Ykvgr3GOJs-1" edge="1">
                    <mxGeometry x="-1" y="-10" width="50" height="50" relative="1" as="geometry">
                        <mxPoint x="380" y="100" as="sourcePoint"/>
                        <mxPoint x="440" y="220" as="targetPoint"/>
                        <mxPoint x="10" y="-10" as="offset"/>
                    </mxGeometry>
                </mxCell>
                <mxCell id="r83OxqLwS6Ykvgr3GOJs-8" value="Кадровая политика" style="endArrow=classic;html=1;rounded=0;entryX=0.5;entryY=0;entryDx=0;entryDy=0;align=center;" parent="1" edge="1">
                    <mxGeometry x="-0.1667" y="60" width="50" height="50" relative="1" as="geometry">
                        <mxPoint x="420" y="100" as="sourcePoint"/>
                        <mxPoint x="420" y="220" as="targetPoint"/>
                        <mxPoint as="offset"/>
                    </mxGeometry>
                </mxCell>
                <mxCell id="r83OxqLwS6Ykvgr3GOJs-9" value="Услуги для читателей" style="endArrow=classic;html=1;rounded=0;labelPosition=right;verticalLabelPosition=top;align=left;verticalAlign=bottom;" parent="1" edge="1">
                    <mxGeometry width="50" height="50" relative="1" as="geometry">
                        <mxPoint x="440" y="240" as="sourcePoint"/>
                        <mxPoint x="540" y="240" as="targetPoint"/>
                    </mxGeometry>
                </mxCell>
                <mxCell id="r83OxqLwS6Ykvgr3GOJs-10" value="Услуги для персонала" style="endArrow=classic;html=1;rounded=0;labelPosition=right;verticalLabelPosition=bottom;align=left;verticalAlign=top;" parent="1" edge="1">
                    <mxGeometry width="50" height="50" relative="1" as="geometry">
                        <mxPoint x="440" y="260" as="sourcePoint"/>
                        <mxPoint x="540" y="260" as="targetPoint"/>
                    </mxGeometry>
                </mxCell>
                <mxCell id="r83OxqLwS6Ykvgr3GOJs-11" value="A0" style="text;html=1;strokeColor=none;fillColor=none;align=center;verticalAlign=middle;whiteSpace=wrap;rounded=0;" parent="1" vertex="1">
                    <mxGeometry x="400" y="260" width="60" height="30" as="geometry"/>
                </mxCell>
                <mxCell id="2" value="Здания библиотек" style="endArrow=classic;html=1;rounded=0;entryX=0.25;entryY=1;entryDx=0;entryDy=0;labelPosition=center;verticalLabelPosition=bottom;align=center;verticalAlign=top;" parent="1" edge="1">
                    <mxGeometry x="-0.8" width="50" height="50" relative="1" as="geometry">
                        <mxPoint x="379.5" y="380" as="sourcePoint"/>
                        <mxPoint x="379.5" y="280" as="targetPoint"/>
                        <mxPoint x="1" as="offset"/>
                    </mxGeometry>
                </mxCell>
                <mxCell id="3" value="Претенденты на работу" style="endArrow=classic;html=1;rounded=0;entryX=0;entryY=0.75;entryDx=0;entryDy=0;" edge="1" parent="1">
                    <mxGeometry width="50" height="50" relative="1" as="geometry">
                        <mxPoint x="160" y="250" as="sourcePoint"/>
                        <mxPoint x="320" y="249.76" as="targetPoint"/>
                        <mxPoint as="offset"/>
                    </mxGeometry>
                </mxCell>
            </root>
        </mxGraphModel>
    </diagram>
</mxfile>